<svg width="2656" height="1341" viewBox="0 0 2656 1341" fill="none" xmlns="http://www.w3.org/2000/svg">
<mask id="mask0_287_78" style="mask-type:luminance" maskUnits="userSpaceOnUse" x="0" y="0" width="2656" height="1341">
<path d="M0 0L0 1340.65H2655.05V0H0Z" fill="white"/>
</mask>
<g mask="url(#mask0_287_78)">
<path d="M138.492 995.859C215.036 860.913 218.561 713.519 283.124 584.122C339.363 471.646 428.022 425.573 507.52 379.963C615.35 318.264 703.072 254.065 901.094 333.031C1075.37 403.07 1192.94 398.533 1294.96 490.762C1372.48 560.741 1436.35 713.176 1561.79 748.177C1696.7 785.905 1832.14 754.722 1859.79 749.646C1943.55 733.274 2092.84 680.18 2079.1 545.004C2068.96 444.543 2029.98 413.672 1991.05 318.768C1972.61 273.194 1944.46 235.377 1894.76 109.747C1864.08 37.5071 1833.98 5.92673 1816.84 -12.8207" stroke="#0D64C8" stroke-opacity="0.51" stroke-width="0.1"/>
<path d="M153.317 1014.35C234.07 895.313 252.096 810.256 276.167 711.693C284.507 677.542 293.573 641.77 306.227 602.398C346.156 478.476 488.964 414.274 525.433 390.774C648.376 312.749 717.25 268.801 886.337 331.968C1119.51 419.567 1210.91 417.781 1293.41 503.342C1379.18 592.975 1419.19 709.527 1548.44 761.926C1680.65 815.61 1868.17 762.158 1887.41 756.724C1962.15 735.762 2081.07 681.078 2094.25 579.521C2106.95 475.845 2057.97 422.242 2036.54 364.062C2010.16 292.458 1981.37 268.852 1932.89 163.112C1897.31 87.9856 1871.35 38.4454 1837.34 -3.79654" stroke="#0D64C8" stroke-opacity="0.51" stroke-width="0.2"/>
<path d="M166.812 1027.9C302.489 873.81 298.904 755.431 322.123 639.347C346.393 516.811 445.755 466.399 536.343 401.169C665.019 308.483 743.952 286.13 891.896 335.528C1085.96 400.276 1238.39 430.882 1313.52 541.499C1383.62 644.925 1426.35 719.785 1536.82 774.143C1663.88 836.704 1857.31 780.639 1880.97 773.397C1951.38 751.726 2069.32 691.658 2096.6 617.32C2132.63 521.392 2097.32 460.313 2067.51 382.163C2020.37 257.224 1985.87 253.679 1944.17 157.922C1898.06 55.396 1879.31 42.3085 1850.68 -3.54345" stroke="#0D64C8" stroke-opacity="0.51" stroke-width="0.297129"/>
<path d="M177.242 1038.98C296.066 929.605 323.463 853.045 333.966 778.294C340.445 732.171 340.492 686.733 351.611 634.7C372.697 536.397 462.267 475.513 531.221 425.113C655.551 334.442 729.508 282.435 907.099 342.507C1080.8 401.647 1233.06 436.197 1305.09 550.056C1323.02 578.398 1339.51 605.315 1356.46 630.562C1403.39 700.443 1453.9 757.561 1548.38 796.89C1653.68 840.953 1787.57 815.079 1852.39 798.701C1910.12 784.39 2045.37 734.59 2101.35 632.979C2155.97 533.621 2114.89 442.757 2100.64 399.893C2058.56 275.366 2009.9 252.507 1969.52 175.711C1922.64 85.2951 1904.61 53.114 1862.81 -0.809953" stroke="#0D64C8" stroke-opacity="0.51" stroke-width="0.396172"/>
<path d="M190.286 1054.54C294.918 974.234 338.452 911.744 358.489 847.804C377.081 788.479 375.445 727.909 383.61 650.707C394.34 552.612 486.167 482.017 536.223 443.606C635.067 367.946 727.568 279.227 917.81 346.575C1063.24 398.343 1169.56 420.794 1254.31 505.915C1274 525.688 1292.52 548.843 1310.1 576.529C1320.81 593.396 1331.38 611.728 1342.71 630.591C1388.25 706.453 1445.92 790.946 1573.16 823.683C1721.31 861.792 1811.38 828.742 1859.79 818.473C1922.66 805.083 2051.95 727.404 2096.24 660.393C2170.96 551.167 2147.94 495.097 2135.69 434.243C2111.58 313.782 2062.53 277.38 2005.86 206.691C1950.68 138.288 1960.67 115.835 1873.82 -0.80532" stroke="#0D64C8" stroke-opacity="0.51" stroke-width="0.495215"/>
<path d="M205.242 1065.42C286.364 1010.49 340.718 965.211 372.701 908.343C400.77 858.438 411.605 799.606 408.182 717.498C403.911 615.612 447.787 530.01 550.024 455.244C696.805 347.876 736.024 295.463 926.715 352.252C1022.76 381.205 1107.11 412.038 1175.2 454.945C1237.27 494.071 1285.82 543.233 1317.34 610.171C1379.05 741.834 1464.93 818.984 1586.36 846.471C1715.14 875.625 1788.7 861.418 1875.15 838.728C1923.97 825.953 2045.57 742.747 2087.57 687.102C2161.7 591.65 2174.94 551.195 2161.69 456.582C2140.57 303.101 2102.04 276.161 2029.17 210.592C1965.15 153.676 1952.53 84.7252 1884.27 -1.08532" stroke="#0D64C8" stroke-opacity="0.51" stroke-width="0.594257"/>
<path d="M212.789 1079.1C303.901 1032.01 363.833 982.618 399.744 929.568C436.774 874.864 448.263 816.267 442.051 752.275C432.106 650.705 465.956 545.595 552.897 475.802C704.551 354.262 756.692 301.94 928.843 357.042C1110.95 415.988 1236.6 457.354 1312.02 623.689C1336.01 676.644 1365.49 720.3 1399.11 755.507C1453.44 812.4 1518.61 847.241 1588.97 863.646C1738.45 898.543 1800.02 884.201 1881.65 863.101C1931.81 850.15 2037.14 767.46 2099.27 691.867C2160.2 618.219 2188.93 530.465 2185.26 479.03C2175.85 346.179 2153.02 278.744 2052.47 210.307C1963.6 150.027 1968.84 88.3396 1893.83 -2.18882" stroke="#0D64C8" stroke-opacity="0.51" stroke-width="0.6933"/>
<path d="M220.474 1095.63C322.338 1044.6 385.855 1001.77 424.047 954.19C465.829 902.131 477.293 844.381 475.481 763.956C473.058 653.575 480.028 559.161 562.96 489.103C710.081 364.783 761.835 304.095 941.514 362.102C1136.84 425.988 1245.81 484.229 1311.66 646.497C1337.44 709.868 1380.06 763.269 1432.16 803.753C1479.61 840.623 1534.92 866.779 1592.53 879.988C1745.5 915.168 1789.01 921.798 1884.76 893.145C1930.41 879.539 2036.01 786.957 2088.29 725.618C2150.02 653.683 2195.02 573.625 2205.84 481.541C2212.88 416.871 2200.2 374.887 2179.58 315.9C2158.35 254.504 2122.4 242.495 2054.53 194.54C1977.49 140.095 1988.42 113.456 1903.36 -1.1664" stroke="#0D64C8" stroke-opacity="0.51" stroke-width="0.792343"/>
<path d="M233.425 1110.83C340.454 1068.1 414.267 1020.78 458.443 963.897C497.618 913.459 513.486 855.511 508.555 786.595C501.949 694.447 497.093 569.934 574.89 502.976C722.227 376.301 762.162 304.173 959.528 369.124C1169.61 439.83 1242.48 506.539 1305.07 657.094C1335.7 730.634 1383.54 782.715 1433.27 819.345C1496.34 865.811 1562.45 887.417 1600.31 896.436C1740.68 930.157 1807.31 951.25 1878.07 931.83C1927.24 918.282 2026.55 818.964 2083.74 759.262C2120.64 720.71 2138.12 691.081 2156.23 654.848C2170.09 627.113 2184.33 595.504 2207.94 553.059C2240.06 494.915 2233.97 394.872 2216.05 338.941C2199.84 288.56 2187.86 255.211 2097.3 204.795C1987.77 143.678 1985.54 82.0359 1914.85 -0.137466" stroke="#0D64C8" stroke-opacity="0.51" stroke-width="0.891386"/>
<path d="M247.22 1126.13C350.309 1087.01 438.965 1042.79 491.702 978.105C528.101 933.463 547.394 879.068 542.516 809.88C535.072 704.058 519.263 587.914 584.109 520.196C719.871 378.406 791.863 315.593 948.705 365.487C1068.92 404.323 1148.11 452.132 1202.77 508.337C1244.6 551.342 1272.07 599.261 1292.57 651.832C1324.63 734.492 1371.61 789.624 1422.53 827.772C1503.99 888.8 1595.54 906.356 1652.32 923.591C1773.7 960.42 1800.99 978.53 1864.01 973.624C1933.7 969.002 2000.44 873.402 2087.72 782.821C2163.88 703.649 2180.45 620.661 2221.35 551.979C2259.79 487.805 2260.89 403.179 2247.19 348.178C2227.18 268.227 2199.94 236.149 2117.39 197.893C2010.66 148.403 1984.92 73.2968 1930.26 0.131734" stroke="#0D64C8" stroke-opacity="0.51" stroke-width="0.990429"/>
<path d="M255.854 1141.37C337.623 1117.17 411.219 1085.74 467.167 1044.76C535.414 994.765 577.395 930.545 575.913 847.865C574.271 753.584 539.196 609.136 593.171 541.924C698.535 410.681 796.344 319.681 932.557 361.363C1057.96 400.293 1139.51 449.483 1198.4 513.127C1246.74 565.37 1279.81 627.352 1309.31 701.398C1362.14 832.435 1497.69 893.072 1616.66 927.7C1783.86 976.483 1788.09 1020.14 1891.87 1008.12C1948.95 1001.57 2010.24 890.297 2092.22 808.459C2187.85 712.989 2183.98 631.766 2236.97 549.092C2277.58 485.534 2293.84 382.209 2272.74 331.216C2241.12 255.316 2221.98 230.25 2137.71 193.615C2025.65 144.928 1997.12 84.4026 1944.27 0.174189" stroke="#0D64C8" stroke-opacity="0.51" stroke-width="0.990429"/>
<path d="M268.367 1156.21C371.891 1135.86 458.424 1096.36 518.571 1044.5C568.545 1001.41 600.303 949.793 608.45 893.533C620.508 812.282 559.163 631.826 610.768 554.512C667.731 469.183 720.094 413.557 774.402 383.941C828.186 354.608 883.87 350.785 947.814 368.871C1075.29 405.751 1152.25 460.603 1207.56 531.122C1250.27 585.59 1280.07 649.409 1310.26 721.508C1370.79 864.49 1538.94 916.26 1634.15 946.333C1791.89 996.284 1783.72 1041.23 1886.4 1047.57C1973.54 1053.04 2013.56 920.804 2090 841.244C2207.39 719.146 2185.94 656.903 2237.76 570.306C2279.88 500.043 2327.06 402.495 2305.72 334.878C2291.29 289.469 2246.44 219.636 2172.88 192.857C2079.3 157.889 2021.4 121.251 1956.48 0.551966" stroke="#0D64C8" stroke-opacity="0.51" stroke-width="0.951551"/>
<path d="M283.369 1172.69C407.591 1158.41 507.503 1107.84 569.606 1044.82C618.331 995.371 643.778 938.253 639.424 884.984C633.092 806.504 594.669 628.828 624.842 570.1C663.718 493.602 718.501 428.117 782.751 391.798C840.504 359.152 905.899 350.073 974.259 377.747C1077.63 419.887 1141.97 459.08 1189.26 510.237C1239.51 564.608 1270.49 632.497 1308.58 731.787C1372.74 897.125 1572.38 928.055 1652.88 966.445C1730.55 1003.34 1770.95 1035.38 1808.1 1055.84C1841.02 1073.96 1871.39 1082.99 1922.87 1078.23C2011.75 1070.01 2009.34 961.373 2113.15 848.185C2241.75 707.855 2204.63 636.093 2259.63 552.679C2310.34 475.413 2360.1 397.764 2331.46 328.072C2314.43 286.723 2277.91 235.725 2239.72 210.066C2210.7 190.54 2166.31 180.047 2119.59 157.467C2065.9 131.521 2009.11 89.6142 1968.99 -0.296492" stroke="#0D64C8" stroke-opacity="0.51" stroke-width="0.951551"/>
<path d="M296.697 1189.63C410.776 1183.59 511.345 1140.43 579.978 1081.05C634.865 1033.56 669.324 975.696 673.932 918.132C680.643 836.484 626.722 694.59 638.012 607.037C651.16 510.762 744.332 436.401 762.611 418.895C823.984 360.396 912.141 357.625 965.176 377.556C1054.41 412.06 1117.62 446.978 1166.92 493.189C1229.43 551.786 1269.56 628.54 1312 745.639C1367.78 898.204 1549.41 930.024 1642.9 972.991C1793.04 1041.63 1812.05 1116.67 1935.1 1110.87C2041.6 1105.94 2034.14 992.189 2116.25 884.211C2204.83 766.308 2226.29 704.927 2236.15 659.545C2244.06 623.203 2244.53 597.124 2266.08 560.494C2312.49 481.596 2383.22 417.102 2366.2 339.366C2355.58 291.065 2310.35 245.433 2279.72 214.525C2262.37 196.974 2214.64 185.162 2161.35 163.427C2093.45 135.73 2016.53 91.9177 1981.95 -0.426266" stroke="#0D64C8" stroke-opacity="0.51" stroke-width="0.951551"/>
<path d="M307.941 1206.54C452.558 1208.93 556.556 1149.54 621.255 1083.63C661.781 1042.35 686.889 998.501 696.901 965.672C728.91 866.831 656.486 733.687 659.711 633.001C663.106 528 729.412 469.622 756.369 441.654C803.778 393.339 870.885 351.122 956.421 374.96C1072.14 407.85 1154.15 466.211 1213.37 546.603C1253.62 601.239 1283.33 666.05 1305.94 739.956C1357.56 907.846 1592.91 952.626 1667.38 995.174C1761.22 1047.62 1827.92 1144.46 1964.28 1140.92C2079.76 1138.1 2054.14 988.1 2166.25 849.432C2234.16 765.984 2246.19 707.665 2252.82 657.997C2257.91 619.872 2259.82 586.847 2281.36 551.463C2330.17 471.323 2407.64 421.58 2398.39 342.448C2393.92 304.211 2354.25 264.251 2310.47 218.591C2282.84 189.834 2219.67 176.825 2155.54 150.826C2090.16 124.323 2023.8 84.3233 1993.08 0.380774" stroke="#0D64C8" stroke-opacity="0.51" stroke-width="0.951551"/>
<path d="M324.938 1224.55C473.344 1238.64 587.851 1171.88 656.502 1098.83C692.979 1060.01 716.507 1019.41 725.299 988.225C748.378 908.456 715.418 808.466 687.414 691.984C660.05 575.815 722.634 497.831 756.396 458.487C791.566 417.773 864.979 346.558 972.359 381.683C1081.7 417.593 1149.67 468.036 1196.88 526.281C1249.59 591.326 1276.4 666.099 1305.99 741.231C1379.76 927.533 1607.99 967.936 1668.92 1007.4C1774.64 1074.76 1839.08 1172.7 1967.13 1169.39C2114.46 1165.64 2091.61 1062.5 2139.69 954.179C2199.34 821.917 2255.73 763.623 2265.11 690.816C2274.24 625.636 2266.53 590.988 2297.21 544.91C2349.83 465.95 2444.62 414.171 2427.58 335.068C2419.21 296.042 2387.37 261.826 2328.61 209.818C2281.13 167.952 2252.25 182.444 2146.24 135.572C2068.73 101.453 2029.88 68.3392 2002.96 0.554921" stroke="#0D64C8" stroke-opacity="0.51" stroke-width="0.951551"/>
<path d="M337.107 1242.15C484.426 1270.38 603.982 1201.72 678.832 1124.19C729.168 1072.05 759.289 1015.9 764.042 982.501C776.692 901.284 723.108 777.935 705.81 641.256C693.196 535.947 783.372 445.922 797.999 432.291C878.159 361.856 909.174 358.317 978.394 382.472C1082.96 419.32 1149.49 467.921 1199 532.24C1243.17 589.61 1273.79 659.49 1305.78 744.692C1374.88 928.316 1597.35 973.761 1657.64 1012.05C1774.43 1083.93 1827.46 1191.93 1965.64 1196.68C2119.23 1201.95 2131.67 1131 2157.81 983.459C2174.31 901.222 2267.39 788.265 2282.2 721.696C2302.09 632.276 2272.79 602.298 2304.77 548.852C2352.85 468.504 2463.85 415.518 2462.42 336.496C2461.75 296.019 2441.24 279.533 2345.71 199.863C2300.47 162.185 2234.38 158.53 2152.49 126.693C2066.05 93.0695 2025.05 39.8511 2012.08 0.797217" stroke="#0D64C8" stroke-opacity="0.51" stroke-width="0.951551"/>
<path d="M354.281 1260.21C509.646 1300.17 629.141 1228.59 704.741 1144.19C749.285 1094.45 778.592 1040.27 791.017 1001.82C820.053 915.473 724.342 747.251 726.063 623.55C728.083 524.4 777.809 472.67 800.278 448.35C826.62 420.562 883.912 349.497 983.423 385.173C1098.48 426.432 1169.11 489.968 1218.07 564.049C1253.25 617.278 1277.24 675.949 1298.49 735.719C1367.78 930.217 1590.78 977.388 1647.71 1015.75C1752.37 1084.73 1827.07 1195.72 1943.27 1214.17C2059.02 1232.56 2116.66 1209.01 2144.78 1168.7C2161.12 1145.29 2167.5 1116.21 2169.55 1086.41C2175.44 1007.25 2200.34 919.749 2264.96 816.274C2343.85 689.95 2288.73 618.148 2313.37 551.375C2345.15 466.422 2498.66 415.587 2497.72 334.982C2497.17 286.908 2456.84 272.41 2375.8 200.861C2299.88 134.272 2209.6 154.625 2113.21 97.552C2053.49 62.0278 2040 40.6022 2020.22 1.29271" stroke="#0D64C8" stroke-opacity="0.51" stroke-width="0.951551"/>
<path d="M370.175 1276.3C537.52 1342.96 666.729 1243.89 738.034 1156.07C761.731 1126.89 779.037 1098.95 789.218 1078.75C846.877 975.377 816.563 917.803 750.692 679.892C724.538 576.599 777.972 495.953 809.731 458.575C881.201 374.41 920.426 364.076 1002.57 396.17C1117.55 441.227 1174.25 493.274 1214.97 558.298C1255.76 623.441 1280.52 701.604 1331.76 798.816C1408.32 944.116 1575.79 970.087 1645.03 1019.82C1780.38 1113.63 1788.69 1185.98 1938.02 1232.49C2062.7 1271.34 2179.23 1237.01 2199.65 1131.99C2211.38 1071.7 2186.08 994.572 2271.76 851.987C2337.88 741.902 2324.84 671.2 2320.17 614.715C2317.54 582.864 2317.57 555.532 2335.97 528.208C2408.3 420.752 2536.8 408.208 2533.04 335.066C2530.04 276.439 2475.78 252.389 2394.88 188.941C2327.67 136.767 2232.6 139.056 2150.84 110.27C2100.01 92.375 2054.32 62.4763 2023.67 0.0177055" stroke="#0D64C8" stroke-opacity="0.51" stroke-width="0.951551"/>
</g>
</svg>
